HIERARCHY
ROOT Hips
{
	OFFSET 0.000000 0.000000 0.000000
	CHANNELS 6 Xposition Yposition Zposition Zrotation Yrotation Xrotation 
	JOINT LHipJoint
	{
		OFFSET 0.000000 0.000000 0.000000
		CHANNELS 3 Zrotation Yrotation Xrotation
		JOINT LeftUpLeg
		{
			OFFSET 1.363060 -1.794630 0.839290
			CHANNELS 3 Zrotation Yrotation Xrotation
			JOINT LeftLeg
			{
				OFFSET 2.448110 -6.726130 0.000000
				CHANNELS 3 Zrotation Yrotation Xrotation
				JOINT LeftFoot
				{
					OFFSET 2.562200 -7.039590 0.000000
					CHANNELS 3 Zrotation Yrotation Xrotation
					JOINT LeftToeBase
					{
						OFFSET 0.157640 -0.433110 2.322550
						CHANNELS 3 Zrotation Yrotation Xrotation
						End Site
						{
							OFFSET 0.000000 0.000000 0.000000
						}
					}
				}
			}
		}
	}
	JOINT RHipJoint
	{
		OFFSET 0.000000 0.000000 0.000000
		CHANNELS 3 Zrotation Yrotation Xrotation
		JOINT RightUpLeg
		{
			OFFSET -1.305520 -1.794630 0.839290
			CHANNELS 3 Zrotation Yrotation Xrotation
			JOINT RightLeg
			{
				OFFSET -2.542530 -6.985550 0.000000
				CHANNELS 3 Zrotation Yrotation Xrotation
				JOINT RightFoot
				{
					OFFSET -2.568260 -7.056230 0.000000
					CHANNELS 3 Zrotation Yrotation Xrotation
					JOINT RightToeBase
					{
						OFFSET -0.164730 -0.452590 2.363150
						CHANNELS 3 Zrotation Yrotation Xrotation
						End Site
						{
							OFFSET 0.000000 0.000000 0.000000
						}
					}
				}
			}
		}
	}
	JOINT LowerBack
	{
		OFFSET 0.000000 0.000000 0.000000
		CHANNELS 3 Zrotation Yrotation Xrotation
		JOINT Spine
		{
			OFFSET 0.028270 2.035590 -0.193380
			CHANNELS 3 Zrotation Yrotation Xrotation
			JOINT Spine1
			{
				OFFSET 0.056720 2.048850 -0.042750
				CHANNELS 3 Zrotation Yrotation Xrotation
				JOINT Neck
				{
					OFFSET 0.000000 0.000000 0.000000
					CHANNELS 3 Zrotation Yrotation Xrotation
					JOINT Neck1
					{
						OFFSET -0.054170 1.746240 0.172020
						CHANNELS 3 Zrotation Yrotation Xrotation
						JOINT Head
						{
							OFFSET 0.104070 1.761360 -0.123970
							CHANNELS 3 Zrotation Yrotation Xrotation
							End Site
							{
								OFFSET 0.000000 0.000000 0.000000
							}
						}
					}
				}
				JOINT LeftShoulder
				{
					OFFSET 0.000000 0.000000 0.000000
					CHANNELS 3 Zrotation Yrotation Xrotation
					JOINT LeftArm
					{
						OFFSET 3.362410 1.200890 -0.311210
						CHANNELS 3 Zrotation Yrotation Xrotation
						JOINT LeftForeArm
						{
							OFFSET 4.983000 -0.000000 -0.000000
							CHANNELS 3 Zrotation Yrotation Xrotation
							JOINT LeftHand
							{
								OFFSET 3.483560 -0.000000 -0.000000
								CHANNELS 3 Zrotation Yrotation Xrotation
								JOINT LeftFingerBase
								{
									OFFSET 0.000000 0.000000 0.000000
									CHANNELS 3 Zrotation Yrotation Xrotation
									JOINT LeftHandIndex1
									{
										OFFSET 0.715260 -0.000000 -0.000000
										CHANNELS 3 Zrotation Yrotation Xrotation
										End Site
										{
											OFFSET 0.000000 0.000000 0.000000
										}
									}
								}
								JOINT LThumb
								{
									OFFSET 0.000000 0.000000 0.000000
									CHANNELS 3 Zrotation Yrotation Xrotation
									End Site
									{
										OFFSET 0.000000 0.000000 0.000000
									}
								}
							}
						}
					}
				}
				JOINT RightShoulder
				{
					OFFSET 0.000000 0.000000 0.000000
					CHANNELS 3 Zrotation Yrotation Xrotation
					JOINT RightArm
					{
						OFFSET -3.136600 1.374050 -0.404650
						CHANNELS 3 Zrotation Yrotation Xrotation
						JOINT RightForeArm
						{
							OFFSET -5.241900 -0.000000 -0.000000
							CHANNELS 3 Zrotation Yrotation Xrotation
							JOINT RightHand
							{
								OFFSET -3.444170 -0.000000 -0.000000
								CHANNELS 3 Zrotation Yrotation Xrotation
								JOINT RightFingerBase
								{
									OFFSET 0.000000 0.000000 0.000000
									CHANNELS 3 Zrotation Yrotation Xrotation
									JOINT RightHandIndex1
									{
										OFFSET -0.622530 -0.000000 -0.000000
										CHANNELS 3 Zrotation Yrotation Xrotation
										End Site
										{
											OFFSET 0.000000 0.000000 0.000000
										}
									}
								}
								JOINT RThumb
								{
									OFFSET 0.000000 0.000000 0.000000
									CHANNELS 3 Zrotation Yrotation Xrotation
									End Site
									{
										OFFSET 0.000000 0.000000 0.000000
									}
								}
							}
						}
					}
				}
			}
		}
	}
}
MOTION
Frames: 11
Frame Time: 0.008333
9.477625 18.559796 -4.322853 -1.507019 -3.165486 6.870007 -0.717543 -2.013507 -2.217067 -12.254846 4.869224 -33.916092 4.491289 16.574702 45.290489 -3.106046 10.910538 7.426698 0.081200 1.838200 5.058800 2.785261 0.057394 1.439914 19.587307 7.768994 -11.379631 2.063843 -7.860737 23.057613 -3.745584 7.455631 6.567360 -0.228000 3.073200 -8.482600 -0.372751 1.750217 -1.884147 0.941814 2.001836 -5.029618 5.061789 1.242509 5.487786 -10.363506 -5.199715 -15.139101 5.938962 -4.954118 9.128401 6.110200 -2.828300 11.653400 -1.346109 -6.448026 -0.975777 -81.521435 8.922471 43.781932 11.097649 -21.458740 -3.261833 0.233313 1.096040 -1.412790 7.935137 -21.357900 -2.951300 -7.125000 0.000000 0.000000 -13.283100 7.813600 11.680700 -0.082227 7.991511 0.667277 71.600334 -4.604536 41.011336 -22.755618 30.012580 -8.977859 2.752573 3.079589 -22.400646 -30.004607 -20.615961 13.940900 7.125000 0.000000 0.000000 -5.374500 -55.628200 1.404800 
9.482391 18.570990 -4.128118 -1.674979 -3.645009 6.958509 -0.760590 -2.126947 -2.426976 -12.068801 5.151809 -34.571902 3.837553 16.113967 43.032856 -3.469057 11.908349 8.126625 0.004700 -0.440800 -1.211300 2.840512 -0.028836 1.608716 19.687155 8.032350 -10.459971 2.194268 -7.559649 22.357774 -3.827176 7.769149 6.759272 -0.147300 2.473600 -6.816600 -0.190313 1.948311 -1.950182 0.934696 2.231018 -5.013950 5.078157 1.392324 5.548260 -10.472736 -5.124069 -15.066364 6.037951 -4.814726 9.050596 6.243400 -2.760500 11.540900 -1.325248 -6.354067 -0.989415 -81.709603 10.063492 43.648421 11.044444 -21.488919 -3.241005 0.161568 1.102577 -2.201305 8.172697 -21.526694 -3.087600 -7.125000 0.000000 0.000000 -13.102100 7.618200 11.564000 -0.111785 7.984614 0.709831 71.223495 -4.002379 41.608530 -23.445546 30.589865 -9.366970 2.722061 3.081815 -22.850796 -30.134390 -20.519742 13.936700 7.125000 0.000000 0.000000 -5.520000 -55.531600 1.430000 
9.493142 18.563564 -3.941031 -2.043986 -3.963678 7.135610 -0.795973 -2.255295 -2.655599 -11.681738 5.258151 -35.129445 3.161229 15.591532 40.657718 -3.735200 12.696072 8.885061 0.144400 -2.449200 -6.748900 2.898445 -0.090264 1.764384 20.003939 8.123911 -9.676253 2.333697 -7.242209 21.583697 -3.850661 7.911177 6.862523 -0.122500 2.256300 -6.214500 0.322114 2.165261 -2.053368 0.922006 2.472549 -4.991234 4.855497 1.557655 5.717328 -10.396581 -5.150174 -15.150727 6.052495 -4.872702 9.002884 6.261900 -2.771500 11.516100 -1.311480 -6.257336 -0.988933 -81.690581 10.951345 43.828850 10.893001 -21.366005 -3.178345 0.045899 1.192650 -2.483322 9.237111 -22.392201 -3.688500 -7.125000 0.000000 0.000000 -12.391600 6.565100 11.164500 -0.163749 7.948656 0.742193 70.861711 -3.474282 42.074260 -24.433671 31.492286 -10.028339 2.709398 3.223320 -23.463923 -30.965169 -21.567191 15.042300 7.125000 0.000000 0.000000 -6.395800 -56.974800 1.881900 
9.503671 18.555806 -3.744965 -2.408206 -4.374905 7.267067 -0.850677 -2.366985 -2.852177 -11.142867 5.239096 -35.421130 2.451971 14.982408 38.174129 -3.803474 13.058117 9.714758 0.216100 -2.992700 -8.258500 2.949646 -0.165874 1.943029 20.318296 8.034215 -8.875889 2.451892 -6.939218 20.842268 -3.844178 7.928988 6.759369 -0.167500 2.636900 -7.269300 0.783451 2.397557 -2.103011 0.902338 2.733402 -4.988755 4.548211 1.729388 5.854263 -10.029935 -5.180738 -15.534469 5.874589 -5.009781 9.193847 6.009200 -2.824600 11.805100 -1.249744 -6.196963 -1.028764 -81.565098 11.820314 43.745539 10.685072 -21.177353 -3.102794 -0.031510 1.268849 -2.325788 10.000477 -23.087805 -4.157200 -7.125000 0.000000 0.000000 -11.894500 5.715400 10.893700 -0.195328 7.905151 0.717389 70.640146 -3.186236 42.446659 -25.515744 32.451503 -10.769744 2.721579 3.336416 -23.968003 -32.213028 -22.529061 16.347400 7.125000 0.000000 0.000000 -7.838700 -58.390600 2.577500 
9.512649 18.545831 -3.537152 -2.655962 -4.862408 7.268956 -0.948334 -2.448191 -3.019245 -10.746106 5.454949 -35.591845 1.780843 14.307522 35.591446 -4.133429 14.050417 10.685503 0.272000 -3.354800 -9.268200 2.991349 -0.272888 2.136567 20.535186 7.978229 -7.903877 2.544408 -6.662143 20.180940 -3.827376 7.896658 6.521350 -0.228600 3.077400 -8.494400 1.015864 2.607203 -2.104006 0.889951 2.972146 -4.979885 4.459974 1.879300 5.942834 -9.850308 -5.221486 -15.757778 5.759700 -5.114406 9.340202 5.845500 -2.871800 12.006600 -1.191877 -6.138774 -1.066412 -81.552554 12.810097 43.401333 10.540901 -21.094161 -3.053315 -0.074675 1.270968 -2.483735 10.109562 -23.141863 -4.229000 -7.125000 0.000000 0.000000 -11.805500 5.644600 10.824800 -0.209435 7.881942 0.707694 70.479235 -2.704388 42.691516 -26.288061 33.067385 -11.274553 2.721657 3.360133 -24.243532 -32.847989 -22.801646 16.875800 7.125000 0.000000 0.000000 -8.606100 -58.841900 2.925500 
9.523732 18.523885 -3.335545 -2.999956 -5.188314 7.397129 -1.042782 -2.548419 -3.213042 -10.273441 5.590015 -35.797070 1.127207 13.586680 32.921931 -4.516559 15.173993 11.647270 0.352400 -3.814100 -10.554300 3.035081 -0.356671 2.299549 20.862264 8.078503 -6.995481 2.647253 -6.377993 19.495033 -3.744100 7.693248 6.496023 -0.242500 3.169000 -8.749500 1.404225 2.831119 -2.196806 0.883852 3.217347 -4.970396 4.456359 2.045707 5.931745 -10.033489 -5.290572 -15.508412 5.852845 -5.168857 9.171208 5.996000 -2.897500 11.799200 -1.198001 -6.061620 -1.062858 -81.567573 13.840325 43.294520 10.521238 -21.158229 -3.048741 -0.101996 1.242520 -2.808498 9.983148 -23.015466 -4.159300 -7.125000 0.000000 0.000000 -11.865500 5.809600 10.844100 -0.241179 7.891240 0.758056 70.227404 -2.051274 42.769200 -26.739114 33.390039 -11.554939 2.695077 3.355651 -24.522438 -32.773234 -22.722639 16.771400 7.125000 0.000000 0.000000 -8.503100 -58.723300 2.866000 
9.537365 18.511250 -3.129838 -3.117624 -5.477935 7.669169 -1.153764 -2.687455 -3.418515 -9.880162 5.399193 -35.940885 0.445318 12.837139 30.309706 -4.620348 15.652600 12.419502 0.431100 -4.213800 -11.678800 3.096939 -0.408872 2.480310 20.829690 7.818520 -6.390305 2.761276 -6.052130 18.727060 -3.782603 7.839440 6.863161 -0.216300 2.994200 -8.262700 1.612954 3.060869 -2.548500 0.850877 3.471602 -4.961311 4.362427 2.218033 6.055523 -10.133268 -5.359992 -15.394686 5.925767 -5.248509 9.041453 6.112100 -2.926200 11.649000 -1.225039 -5.956848 -1.061314 -81.429733 14.789330 43.273289 10.481324 -21.211464 -3.045097 -0.088406 1.203266 -2.981434 9.390722 -22.843086 -3.871000 -7.125000 0.000000 0.000000 -12.232000 6.084800 11.129200 -0.282943 7.863102 0.797095 69.968313 -1.548301 42.928972 -27.270031 33.789680 -11.859186 2.651587 3.278205 -24.828978 -32.439316 -22.021774 16.094100 7.125000 0.000000 0.000000 -8.100000 -57.785800 2.546200 
9.549446 18.505044 -2.925349 -3.175049 -5.816549 7.844654 -1.276497 -2.814287 -3.614638 -9.405318 4.996642 -35.903898 -0.188660 12.083536 27.801022 -4.722464 16.078282 12.941064 0.521300 -4.627300 -12.848500 3.147480 -0.474875 2.685570 20.700908 7.367021 -5.762605 2.868244 -5.708638 17.935484 -3.911215 8.276973 7.212155 -0.204000 2.908300 -8.023600 1.711872 3.249188 -2.777545 0.821843 3.681223 -4.946700 4.278396 2.360741 6.158523 -10.117917 -5.378240 -15.283317 5.970445 -5.292061 8.955100 6.156000 -2.932800 11.514000 -1.231072 -5.852960 -1.059601 -81.358406 15.765531 42.905070 10.283931 -21.084460 -2.988529 -0.090650 1.218329 -2.566240 9.195541 -23.059859 -3.827900 -7.125000 0.000000 0.000000 -12.350000 5.877800 11.292100 -0.324051 7.823720 0.835932 69.743205 -1.127674 43.294404 -27.999338 34.356279 -12.325995 2.670702 3.212832 -25.253962 -33.220624 -21.443255 16.106100 7.125000 0.000000 0.000000 -9.088000 -57.204000 2.732200 
9.563854 18.495845 -2.726070 -3.613124 -6.226387 7.951048 -1.361511 -2.898641 -3.814252 -8.595779 4.729553 -35.800450 -0.710010 11.308618 25.269731 -5.002623 16.936552 13.656930 0.449400 -4.300800 -11.924600 3.161279 -0.573298 2.853818 21.039517 7.430672 -4.798956 2.973838 -5.379417 17.142008 -3.896643 8.324496 7.178747 -0.225800 3.059000 -8.443000 2.179757 3.418211 -2.761330 0.840073 3.844233 -4.939164 4.286581 2.482608 6.115234 -10.198871 -5.291351 -15.034611 5.994667 -5.156301 8.850523 6.220200 -2.875000 11.305100 -1.200984 -5.778424 -1.059633 -81.602876 16.794610 42.147159 9.968499 -20.789360 -2.881252 -0.160385 1.318682 -1.684027 10.060196 -23.928896 -4.385600 -7.125000 0.000000 0.000000 -11.799900 4.822100 11.007100 -0.330673 7.816709 0.884654 69.401550 -0.604990 43.708655 -28.608979 34.797460 -12.737408 2.714770 3.194551 -25.577889 -34.254355 -21.258493 16.531000 7.125000 0.000000 0.000000 -10.380800 -57.159700 3.115100 
9.583139 18.483542 -2.516594 -3.839357 -6.687179 8.072432 -1.447505 -2.981280 -4.002183 -8.072548 4.634343 -35.804839 -1.185695 10.556390 22.917308 -5.151992 17.523312 14.394056 0.270000 -3.342400 -9.233600 3.176929 -0.687546 3.031415 21.122515 7.582912 -3.794625 3.083989 -5.018834 16.276389 -3.870024 8.287925 7.231862 -0.192800 2.827700 -7.799400 2.425327 3.578972 -2.841838 0.847059 4.005089 -4.933280 4.333232 2.594668 6.173334 -10.286805 -5.267122 -15.048265 5.967903 -5.092142 8.844981 6.228300 -2.856000 11.285300 -1.169263 -5.706882 -1.080456 -81.868664 17.702185 41.287772 9.658004 -20.493848 -2.775909 -0.216332 1.396779 -0.929880 10.693944 -24.570383 -4.818600 -7.125000 0.000000 0.000000 -11.401500 4.034300 10.791000 -0.329196 7.804747 0.908085 69.015438 -0.082880 43.999547 -29.185099 35.172858 -13.072156 2.643327 3.151593 -25.536899 -33.419386 -20.966415 15.858100 7.125000 0.000000 0.000000 -9.303900 -56.641000 2.671000 
9.597769 18.463592 -2.314876 -3.755940 -6.973395 8.193742 -1.538677 -3.085922 -4.195681 -7.726836 4.276545 -35.833696 -1.635148 9.863293 20.802240 -5.189373 17.806458 14.855392 0.363300 -3.872000 -10.717000 3.203240 -0.787391 3.238553 20.911485 7.418304 -2.981630 3.189376 -4.628902 15.366374 -3.843103 8.209459 7.592817 -0.140300 2.413700 -6.650300 2.298317 3.683156 -2.907120 0.832278 4.120727 -4.934007 4.400672 2.675306 6.205107 -10.378250 -5.326602 -15.138464 6.007476 -5.137090 8.822763 6.275000 -2.875900 11.332600 -1.158092 -5.649111 -1.105893 -82.006144 18.493280 40.851442 9.446425 -20.280219 -2.685474 -0.303402 1.405359 -0.882515 11.386509 -24.453997 -5.150400 -7.125000 0.000000 0.000000 -10.927300 4.050100 10.321200 -0.360906 7.818792 0.920440 68.798020 0.440767 44.062160 -29.758284 35.522271 -13.396425 2.554730 3.081447 -25.233791 -32.232472 -20.598967 14.959900 7.125000 0.000000 0.000000 -7.812100 -55.965800 2.110800 
